<?xml version="1.0" encoding="utf-8"?><!-- Generator: Adobe Illustrator 15.0.2, SVG Export Plug-In . SVG Version: 6.00 Build 0)  --><!DOCTYPE svg PUBLIC "-//W3C//DTD SVG 1.1//EN" "http://www.w3.org/Graphics/SVG/1.1/DTD/svg11.dtd"><svg version="1.1" id="Layer_1" xmlns="http://www.w3.org/2000/svg" xmlns:xlink="http://www.w3.org/1999/xlink" x="0px" y="0px"    width="169px" height="46px" viewBox="0 0 169 46" enable-background="new 0 0 169 46" xml:space="preserve"><g>   <path fill="#434343" d="M0.261,0.326h17.097c15.831,0,25.013,9.119,25.013,21.91v0.126c0,12.792-9.309,22.291-25.266,22.291H0.261      V0.326z M17.548,33.761c7.346,0,12.222-4.053,12.222-11.208v-0.126c0-7.092-4.876-11.208-12.222-11.208h-5.002v22.543      L17.548,33.761L17.548,33.761z"/>   <path fill="#434343" d="M44.908,25.212V0.326h12.475v24.633c0,6.396,3.229,9.436,8.169,9.436c4.939,0,8.168-2.912,8.168-9.119      V0.326h12.475v24.568c0,14.312-8.168,20.582-20.771,20.582C52.823,45.477,44.908,39.08,44.908,25.212z"/>   <path fill="#434343" d="M89.682,0.326h22.733c5.572,0,9.499,1.393,12.095,3.989c1.773,1.773,2.851,4.116,2.851,7.156v0.126      c0,5.129-2.912,8.169-6.839,9.878c5.383,1.773,8.802,4.813,8.802,10.83v0.125c0,7.6-6.205,12.223-16.78,12.223h-22.86L89.682,0.326      L89.682,0.326z M109.376,17.994c3.735,0,5.825-1.267,5.825-3.863v-0.127c0-2.406-1.899-3.799-5.572-3.799h-7.979v7.789H109.376      L109.376,17.994z M111.148,34.773c3.735,0,5.89-1.457,5.89-4.053v-0.127c0-2.406-1.899-3.988-6.016-3.988h-9.372v8.168H111.148      L111.148,34.773z"/>   <path fill="#434343" d="M130.53,38.066l6.839-8.168c4.369,3.482,9.245,5.318,14.374,5.318c3.293,0,5.065-1.14,5.065-3.04V32.05      c0-1.836-1.457-2.85-7.473-4.243c-9.436-2.152-16.718-4.812-16.718-13.931V13.75c0-8.232,6.521-14.185,17.161-14.185      c7.536,0,13.425,2.026,18.236,5.889l-6.143,8.676c-4.053-2.85-8.485-4.37-12.411-4.37c-2.977,0-4.433,1.267-4.433,2.85v0.126      c0,2.026,1.52,2.913,7.662,4.306c10.194,2.216,16.526,5.509,16.526,13.806v0.125c0,9.057-7.155,14.438-17.921,14.438      C143.448,45.413,135.976,42.943,130.53,38.066z"/></g></svg>