<?xml version="1.0" encoding="utf-8"?>
<!-- Generator: Adobe Illustrator 16.0.0, SVG Export Plug-In . SVG Version: 6.00 Build 0)  -->
<!DOCTYPE svg PUBLIC "-//W3C//DTD SVG 1.1//EN" "http://www.w3.org/Graphics/SVG/1.1/DTD/svg11.dtd">
<svg version="1.1" id="Layer_1" xmlns="http://www.w3.org/2000/svg" xmlns:xlink="http://www.w3.org/1999/xlink" x="0px" y="0px"
	 width="71.5px" height="67px" viewBox="0 0 71.5 67" enable-background="new 0 0 71.5 67" xml:space="preserve">
<g>
	<defs>
		<rect id="SVGID_1_" width="71.5" height="67"/>
	</defs>
	<clipPath id="SVGID_2_">
		<use xlink:href="#SVGID_1_"  overflow="visible"/>
	</clipPath>
	<path clip-path="url(#SVGID_2_)" fill="#FFFFFF" d="M57.356,33.198c-0.55-11.921-9.631-20.92-21.602-21.323
		C23.689,11.468,14.516,22.039,14.13,33.5c-0.407,12.066,10.164,21.239,21.625,21.625C47.821,55.531,56.994,44.961,57.38,33.5
		C57.385,33.391,57.374,33.292,57.356,33.198 M53.234,26.147c-2.734-0.157-5.177,2.466-6.545,4.818
		c-2.033,3.493-2.577,7.985-6.039,10.495c-2.7,1.96-5.222,2.748-8.534,2.226c-10.541-1.66-12.474-12.027-7.291-20.146
		c3.044-4.768,9.101-7.967,14.605-8.861c0.029-0.004,0.053-0.015,0.081-0.021C45.777,15.824,50.778,20.385,53.234,26.147
		 M35.755,52.625C25.072,52.985,16.972,43.646,16.63,33.5c-0.305-9.055,6.358-16.252,14.574-18.444
		c-9.535,5.426-16.873,17.182-8.522,26.521c3.975,4.446,11.816,6.335,17.061,3.349c2.738-1.558,4.579-3.165,6.088-5.96
		c1.422-2.636,4.059-12.666,8.406-9.864c0.37,1.43,0.593,2.905,0.643,4.398C54.521,44.188,46.443,52.265,35.755,52.625"/>
</g>
</svg>
