<?xml version="1.0" encoding="utf-8"?>
<!-- Generator: Adobe Illustrator 16.0.0, SVG Export Plug-In . SVG Version: 6.00 Build 0)  -->
<!DOCTYPE svg PUBLIC "-//W3C//DTD SVG 1.1//EN" "http://www.w3.org/Graphics/SVG/1.1/DTD/svg11.dtd">
<svg version="1.1" id="Layer_1" xmlns="http://www.w3.org/2000/svg" xmlns:xlink="http://www.w3.org/1999/xlink" x="0px" y="0px"
	 width="71.5px" height="67px" viewBox="0 0 71.5 67" enable-background="new 0 0 71.5 67" xml:space="preserve">
<g>
	<defs>
		<rect id="SVGID_1_" width="71.5" height="67"/>
	</defs>
	<clipPath id="SVGID_2_">
		<use xlink:href="#SVGID_1_"  overflow="visible"/>
	</clipPath>
	<path clip-path="url(#SVGID_2_)" fill="#FFFFFF" d="M58.258,25.531c0-0.681-0.567-1.25-1.25-1.25H43.242V9.667
		c0-0.682-0.569-1.25-1.25-1.25h-27.5c-0.682,0-1.25,0.568-1.25,1.25v47.666c0,0.682,0.568,1.25,1.25,1.25h27.5h15.016
		c0.369,0,0.648-0.134,0.849-0.335c0.012-0.01,0.022-0.022,0.034-0.032c0.012-0.012,0.022-0.022,0.033-0.035
		c0.201-0.199,0.334-0.479,0.334-0.848V25.531z M40.742,25.531v30.552h-25V10.917h25V25.531z M43.242,26.781h12.517v29.302H43.242
		V26.781z"/>
	<path clip-path="url(#SVGID_2_)" fill="#FFFFFF" d="M20.658,17.083h15.5c1.612,0,1.612-2.5,0-2.5h-15.5
		C19.046,14.583,19.046,17.083,20.658,17.083"/>
	<path clip-path="url(#SVGID_2_)" fill="#FFFFFF" d="M20.658,22.556h15.5c1.612,0,1.612-2.5,0-2.5h-15.5
		C19.046,20.056,19.046,22.556,20.658,22.556"/>
	<path clip-path="url(#SVGID_2_)" fill="#FFFFFF" d="M20.658,28.028h15.5c1.612,0,1.612-2.5,0-2.5h-15.5
		C19.046,25.528,19.046,28.028,20.658,28.028"/>
	<path clip-path="url(#SVGID_2_)" fill="#FFFFFF" d="M20.658,33.5h15.5c1.612,0,1.612-2.5,0-2.5h-15.5
		C19.046,31,19.046,33.5,20.658,33.5"/>
	<path clip-path="url(#SVGID_2_)" fill="#FFFFFF" d="M20.658,38.973h15.5c1.612,0,1.612-2.5,0-2.5h-15.5
		C19.046,36.473,19.046,38.973,20.658,38.973"/>
	<path clip-path="url(#SVGID_2_)" fill="#FFFFFF" d="M20.658,44.444h15.5c1.612,0,1.612-2.5,0-2.5h-15.5
		C19.046,41.944,19.046,44.444,20.658,44.444"/>
	<path clip-path="url(#SVGID_2_)" fill="#FFFFFF" d="M36.158,47.417h-15.5c-1.612,0-1.612,2.5,0,2.5h15.5
		C37.771,49.917,37.771,47.417,36.158,47.417"/>
</g>
</svg>
