<?xml version="1.0" encoding="utf-8"?>
<!-- Generator: Adobe Illustrator 16.0.0, SVG Export Plug-In . SVG Version: 6.00 Build 0)  -->
<!DOCTYPE svg PUBLIC "-//W3C//DTD SVG 1.1//EN" "http://www.w3.org/Graphics/SVG/1.1/DTD/svg11.dtd">
<svg version="1.1" id="Layer_1" xmlns="http://www.w3.org/2000/svg" xmlns:xlink="http://www.w3.org/1999/xlink" x="0px" y="0px"
	 width="71.5px" height="67px" viewBox="0 0 71.5 67" enable-background="new 0 0 71.5 67" xml:space="preserve">
<g>
	<defs>
		<rect id="SVGID_1_" width="71.5" height="67"/>
	</defs>
	<clipPath id="SVGID_2_">
		<use xlink:href="#SVGID_1_"  overflow="visible"/>
	</clipPath>
	<path clip-path="url(#SVGID_2_)" fill="#FFFFFF" d="M55.014,19.917c0.007-0.138-0.01-0.259-0.037-0.374
		C53.747,3.511,30.401,3.629,29.524,19.917c-0.043,0.799,0.011,1.569,0.129,2.315c-3.223,3.829-6.446,7.657-9.668,11.486
		c-2.305,2.739-6.866,6.372-3.702,10.166c1.006,1.206,2.637,3.404,4.418,3.408c2.674,0.005,4.465-2.256,6.334-3.904
		c4.236-3.738,8.538-7.403,12.839-11.067c0.788,0.18,1.59,0.298,2.395,0.341c7.066,0.38,12.18-5.872,12.708-12.372
		C55.004,20.176,55.021,20.054,55.014,19.917 M30.059,37.453c-1.968,1.697-3.932,3.4-5.876,5.126
		c-0.686,0.608-2.814,2.81-3.632,2.036c-0.991-0.935-4.17-2.909-2.5-4.731c4.345-4.739,8.352-9.838,12.468-14.791
		c1.299,2.814,3.737,5.01,6.61,6.299C34.768,33.408,32.41,35.426,30.059,37.453 M32.024,19.917
		c-0.312-5.795,4.905-9.957,10.245-10.245c5.795-0.312,9.957,4.905,10.245,10.245C51.803,33.12,32.735,33.12,32.024,19.917"/>
	<path clip-path="url(#SVGID_2_)" fill="#FFFFFF" d="M34.82,44.234c-1.999,0.353-3.529,1.207-4.954,2.631
		c-0.934,0.936-1.869,1.869-2.804,2.805c-1.94,1.939-3.627,3.637-6.543,4.023c-3.378,0.45-6.311-3.012-4.628-6.021
		c0.788-1.408-1.371-2.668-2.158-1.263c-2.95,5.272,2.815,11.438,8.451,9.562c3.731-1.242,6.128-4.018,8.844-6.734
		c0.361-0.359,0.716-0.727,1.079-1.086c2.092-2.067,7.408-2.834,8.061,2.497c0.213,1.725-1.01,3.624-1.803,5.053
		c-0.783,1.411,1.377,2.671,2.159,1.263c1.572-2.833,2.786-5.687,1.534-8.865C41.067,45.584,37.435,43.774,34.82,44.234"/>
</g>
</svg>
