<?xml version="1.0" encoding="utf-8"?>
<!-- Generator: Adobe Illustrator 16.0.0, SVG Export Plug-In . SVG Version: 6.00 Build 0)  -->
<!DOCTYPE svg PUBLIC "-//W3C//DTD SVG 1.1//EN" "http://www.w3.org/Graphics/SVG/1.1/DTD/svg11.dtd">
<svg version="1.1" id="Layer_1" xmlns="http://www.w3.org/2000/svg" xmlns:xlink="http://www.w3.org/1999/xlink" x="0px" y="0px"
	 width="71.5px" height="67px" viewBox="0 0 71.5 67" enable-background="new 0 0 71.5 67" xml:space="preserve">
<g>
	<defs>
		<rect id="SVGID_1_" width="71.5" height="67"/>
	</defs>
	<clipPath id="SVGID_2_">
		<use xlink:href="#SVGID_1_"  overflow="visible"/>
	</clipPath>
	<path clip-path="url(#SVGID_2_)" fill="#FFFFFF" d="M12.363,39.523c-2.417-2.917-4.833-5.833-7.25-8.75l-0.253,1.963
		c1-0.458,2-0.916,3-1.375c0.568-0.26,1.136-0.52,1.704-0.781c1.47-0.674,1.009-0.047,0.126-0.543
		c2.238,1.256,4.475,2.511,6.713,3.767c3.514,1.971,3.909,2.328,7.37,0.613c8.587-4.255,17.101-8.727,25.791-12.764
		c3.231-1.501,6.755-2.618,10.317-2.867c2.396-0.168,6.552,1.204,3.993,4.126c-1.08,1.233-2.63,2.083-4.03,2.896
		c-3.902,2.263-8.254,3.989-12.259,6.094c-3.891,2.045-4.758,5.958-6.645,9.873c-0.582,1.206-1.163,2.411-1.744,3.617
		c-0.705,1.461,0.011,0.615-0.294,0.703c-2.419,0.702-4.837,1.404-7.256,2.106c0.527,0.401,1.055,0.804,1.582,1.205
		c0.083-3.417,0.167-6.833,0.25-10.25c0.019-0.778-0.818-1.466-1.582-1.205c-3.417,1.166-6.834,2.333-10.25,3.5
		c-1.427,0.487-2.858,0.942-4.311,1.349c-1.248,0.348-2.515,0.609-3.79,0.839c-2.703,0.484-4.957-0.178-1.436-2.153
		c1.406-0.788,0.146-2.947-1.262-2.158c-1.913,1.073-4.838,2.726-3.575,5.336c1.256,2.596,5.788,1.592,7.896,1.215
		c5.906-1.059,11.742-3.586,17.392-5.517c-0.527-0.401-1.054-0.803-1.582-1.205c-0.083,3.417-0.167,6.833-0.25,10.25
		c-0.02,0.808,0.814,1.429,1.582,1.205c2.419-0.702,4.838-1.403,7.257-2.105c1.664-0.484,2.045-2.388,2.742-3.832
		c1.484-3.079,2.969-6.159,4.454-9.238c0.376-0.78-0.098-0.229,1.367-0.999c1.608-0.846,3.218-1.691,4.827-2.537
		c4.04-2.124,9.047-3.738,12.684-7.22c5.295-5.07-2.243-8.64-6.83-8.319c-4.535,0.316-8.853,2.297-12.877,4.291
		c-6.21,3.076-12.419,6.153-18.629,9.23c-2.194,1.087-4.388,2.175-6.582,3.262c-1.525,0.755,0.207,0.333,0.035,0.236
		c-1.308-0.733-2.616-1.467-3.923-2.2c-1.645-0.923-4.627-3.523-6.607-3.523c-2.024,0-4.812,2.087-6.631,2.921
		c-0.792,0.363-0.719,1.4-0.253,1.963c2.417,2.917,4.834,5.833,7.25,8.75C11.625,42.533,13.383,40.755,12.363,39.523"/>
</g>
</svg>
