<?xml version="1.0" encoding="utf-8"?>
<!-- Generator: Adobe Illustrator 16.0.0, SVG Export Plug-In . SVG Version: 6.00 Build 0)  -->
<!DOCTYPE svg PUBLIC "-//W3C//DTD SVG 1.1//EN" "http://www.w3.org/Graphics/SVG/1.1/DTD/svg11.dtd">
<svg version="1.1" id="Layer_1" xmlns="http://www.w3.org/2000/svg" xmlns:xlink="http://www.w3.org/1999/xlink" x="0px" y="0px"
	 width="30.333px" height="29.667px" viewBox="0 0 30.333 29.667" enable-background="new 0 0 30.333 29.667" xml:space="preserve">
<g>
	<defs>
		<rect id="SVGID_1_" y="0" width="30.333" height="29.667"/>
	</defs>
	<clipPath id="SVGID_2_">
		<use xlink:href="#SVGID_1_"  overflow="visible"/>
	</clipPath>
	<path clip-path="url(#SVGID_2_)" fill="#4F5858" d="M9.808,9.964c1.064-5.748,9.253-7.171,11.324-1.259
		c1.106,3.161-0.391,6.345-2.766,8.471c-0.908,0.812-1.517,2.01-1.979,3.101c-0.311,0.73-0.455,1.567-0.646,2.333
		c-0.617,2.481-3.707,2.036-4.507-0.331c-0.401-1.188-2.292-0.678-1.887,0.521c1.44,4.259,6.721,4.614,8.281,0.33
		c0.78-2.144,1.212-3.755,2.95-5.312c0.827-0.741,1.536-1.863,1.96-2.869c0.809-1.919,1.048-3.697,0.731-5.732
		C21.932,0.614,9.438,1.25,7.92,9.444C7.692,10.677,9.579,11.204,9.808,9.964"/>
	<path clip-path="url(#SVGID_2_)" fill="#4F5858" d="M19.748,10.787c-0.086-2.281-1.647-3.831-3.899-3.972
		c-3.296-0.206-4.14,3.34-4.381,5.874c-0.055,0.574,0.49,0.923,0.978,0.978c0.112,0.013,0.999,0.294,1.343,0.575
		c1.301,1.064-0.406,2.095-1.343,2.125c-1.258,0.041-1.262,1.998,0,1.957c2.224-0.071,3.856-1.446,3.576-3.801
		c-0.209-1.758-1.997-2.632-3.576-2.812c0.326,0.326,0.653,0.652,0.979,0.978c0.156-1.639,0.378-3.791,2.424-3.917
		c1.17-0.072,1.902,0.948,1.942,2.015C17.839,12.045,19.796,12.049,19.748,10.787"/>
</g>
</svg>
