<?xml version="1.0" encoding="utf-8"?>
<!-- Generator: Adobe Illustrator 16.0.0, SVG Export Plug-In . SVG Version: 6.00 Build 0)  -->
<!DOCTYPE svg PUBLIC "-//W3C//DTD SVG 1.1//EN" "http://www.w3.org/Graphics/SVG/1.1/DTD/svg11.dtd">
<svg version="1.1" id="Layer_1" xmlns="http://www.w3.org/2000/svg" xmlns:xlink="http://www.w3.org/1999/xlink" x="0px" y="0px"
	 width="30.333px" height="29.667px" viewBox="0 0 30.333 29.667" enable-background="new 0 0 30.333 29.667" xml:space="preserve">
<g>
	<defs>
		<rect id="SVGID_1_" y="0" width="30.333" height="29.667"/>
	</defs>
	<clipPath id="SVGID_2_">
		<use xlink:href="#SVGID_1_"  overflow="visible"/>
	</clipPath>
	<path clip-path="url(#SVGID_2_)" fill="#4F5858" d="M27.093,15.718c-0.905,0-1.188-0.672-1.254-0.885
		c0.005,0-0.608-3.339-0.647-3.558c-0.086-0.8-0.66-2.37-2.183-2.37c-1.575,0-2.135,1.831-2.211,2.798
		c0.003-0.016,0.004-0.023,0.004-0.023s-0.014,0.096-0.033,0.243c-0.55,4.248-0.954,7.057-1.139,7.911
		c-0.123,0.571-0.221,0.941-0.288,1.102c-0.048-0.156-0.102-0.361-0.126-0.536L17.475,8.234c-0.118-0.855-0.782-2.648-2.308-2.648
		c-1.474,0-2.19,1.793-2.307,2.648L11.119,20.4c-0.025,0.175-0.079,0.38-0.127,0.536c-0.067-0.16-0.164-0.53-0.288-1.102
		c-0.184-0.854-0.589-3.663-1.139-7.911c-0.018-0.147-0.033-0.243-0.033-0.243s0.001,0.007,0.004,0.023
		c-0.075-0.967-0.635-2.798-2.21-2.798c-1.523,0-2.097,1.57-2.183,2.37c-0.039,0.219-0.652,3.558-0.648,3.558
		c-0.065,0.213-0.349,0.885-1.254,0.885l-1.366,0.047v2.05c0,0,1.487,0.014,1.726,0.013c1.569,0,2.478-1.154,2.788-2.333
		c0,0,0.704-3.834,0.698-3.872C7.1,11.508,7.153,11.37,7.326,11.37c0.151,0,0.24,0.433,0.26,0.647
		c0.009,0.068,0.864,6.816,1.219,8.46c0.369,1.703,0.776,3.006,2.35,3.006c1.121,0,1.726-1.429,1.902-2.651l1.74-12.164
		C14.8,8.646,14.927,8,15.167,8.059c0.307-0.012,0.368,0.588,0.371,0.609l1.738,12.164c0.177,1.223,0.781,2.651,1.902,2.651
		c1.574,0,1.981-1.303,2.352-3.006c0.354-1.645,1.21-8.393,1.218-8.46c0.021-0.214,0.108-0.647,0.261-0.647
		c0.173,0,0.225,0.138,0.238,0.253c-0.006,0.038,0.698,3.872,0.698,3.872c0.311,1.179,1.22,2.333,2.788,2.333
		c0.238,0.001,1.726-0.013,1.726-0.013v-2.05L27.093,15.718z"/>
</g>
</svg>
