<?xml version="1.0" encoding="utf-8"?>
<!-- Generator: Adobe Illustrator 16.0.0, SVG Export Plug-In . SVG Version: 6.00 Build 0)  -->
<!DOCTYPE svg PUBLIC "-//W3C//DTD SVG 1.1//EN" "http://www.w3.org/Graphics/SVG/1.1/DTD/svg11.dtd">
<svg version="1.1" id="Layer_1" xmlns="http://www.w3.org/2000/svg" xmlns:xlink="http://www.w3.org/1999/xlink" x="0px" y="0px"
	 width="30.333px" height="29.667px" viewBox="0 0 30.333 29.667" enable-background="new 0 0 30.333 29.667" xml:space="preserve">
<g>
	<defs>
		<rect id="SVGID_1_" y="0" width="30.333" height="29.667"/>
	</defs>
	<clipPath id="SVGID_2_">
		<use xlink:href="#SVGID_1_"  overflow="visible"/>
	</clipPath>
	<path clip-path="url(#SVGID_2_)" fill="#4F5858" d="M24.645,15.029c1.143-3.866,0.996-7.125,0.98-7.388l-0.044-0.797l-0.796-0.022
		c-2.346-0.062-5.588-1.728-6.708-2.479c-1.167-0.78-2.248-0.802-2.368-0.802s-1.202,0.022-2.369,0.804
		C12.22,5.094,8.979,6.76,6.632,6.822L5.836,6.844L5.792,7.641c-0.029,0.523-0.594,12.862,9.505,18.312l0.411,0.222l0.411-0.222
		c0.907-0.489,1.701-1.05,2.444-1.637c0.886,0.598,1.953,0.946,3.101,0.946c3.069,0,5.558-2.488,5.558-5.556
		C27.223,17.736,26.19,16.015,24.645,15.029 M16.109,19.707c0,1.29,0.458,2.462,1.196,3.404c-0.498,0.383-1.021,0.752-1.597,1.086
		C8.322,19.914,7.573,11.105,7.517,8.485c2.777-0.369,5.848-2.072,6.787-2.701c0.73-0.489,1.409-0.511,1.395-0.511
		c0.007,0,0.686,0.022,1.414,0.509c0.939,0.631,4.01,2.334,6.787,2.703c-0.021,1.109-0.171,3.331-0.894,5.846
		c-0.432-0.108-0.876-0.182-1.342-0.182C18.598,14.149,16.109,16.637,16.109,19.707 M24.63,18.653
		c-1.132,1.133-2.265,2.266-3.396,3.397c-0.211,0.211-0.416,0.213-0.628,0.001c-0.626-0.623-1.25-1.247-1.873-1.872
		c-0.171-0.171-0.177-0.394-0.01-0.569c0.171-0.18,0.348-0.354,0.527-0.527c0.182-0.175,0.398-0.173,0.577,0.005
		c0.331,0.327,0.659,0.657,0.987,0.987c0.031,0.031,0.053,0.07,0.089,0.119c0.435-0.436,0.843-0.845,1.251-1.254
		c0.456-0.457,0.913-0.914,1.371-1.371c0.212-0.212,0.426-0.209,0.639,0.003c0.159,0.159,0.321,0.315,0.477,0.479
		C24.829,18.25,24.824,18.459,24.63,18.653"/>
</g>
</svg>
