<?xml version="1.0" encoding="utf-8"?>
<!-- Generator: Adobe Illustrator 16.0.0, SVG Export Plug-In . SVG Version: 6.00 Build 0)  -->
<!DOCTYPE svg PUBLIC "-//W3C//DTD SVG 1.1//EN" "http://www.w3.org/Graphics/SVG/1.1/DTD/svg11.dtd">
<svg version="1.1" id="Layer_1" xmlns="http://www.w3.org/2000/svg" xmlns:xlink="http://www.w3.org/1999/xlink" x="0px" y="0px"
	 width="29.667px" height="29.667px" viewBox="0 0 29.667 29.667" enable-background="new 0 0 29.667 29.667" xml:space="preserve">
<g>
	<defs>
		<rect id="SVGID_1_" y="0" width="29.667" height="29.667"/>
	</defs>
	<clipPath id="SVGID_2_">
		<use xlink:href="#SVGID_1_"  overflow="visible"/>
	</clipPath>
	<path clip-path="url(#SVGID_2_)" fill="#4F5858" d="M23.287,7.73c-1.886-2.049-4.67-3.224-7.638-3.224
		c-1.354,0-2.667,0.242-3.903,0.718C8.572,6.449,6.189,9.222,5.35,12.658H3.781l-0.08-0.001c-0.067,0-0.167,0.002-0.263,0.01
		l-0.082,0.007l-0.108,0.048c-0.26,0.101-0.449,0.32-0.521,0.606c-0.081,0.318-0.003,0.659,0.185,0.867l3.057,3.811
		c0.14,0.175,0.373,0.276,0.64,0.276c0.27,0,0.516-0.098,0.675-0.267c0.602-0.641,1.089-1.286,1.565-1.918
		c0.466-0.615,0.946-1.252,1.532-1.875c0.257-0.273,0.325-0.673,0.175-1.02c-0.145-0.336-0.462-0.545-0.828-0.545H8.045
		c1.088-3.257,4.235-5.513,7.731-5.513c2.009,0,3.878,0.742,5.402,2.147c2.342,2.156,3.086,5.375,1.944,8.4
		c-1.216,3.219-4.154,5.345-7.484,5.418c-0.835,0.018-1.264,0.687-1.256,1.339c0.005,0.473,0.242,0.974,0.744,1.171
		c0,0,0.264,0.09,0.933,0.068c4.147-0.237,7.698-2.67,9.333-6.423C27.054,15.453,26.227,10.924,23.287,7.73"/>
</g>
</svg>
